<svg xmlns="http://www.w3.org/2000/svg" xmlns:xlink="http://www.w3.org/1999/xlink" width="128" zoomAndPan="magnify" viewBox="0 0 96 95.999999" height="128" preserveAspectRatio="xMidYMid meet" version="1.0"><defs><g/><clipPath id="444be98a36"><rect x="0" width="95" y="0" height="96"/></clipPath></defs><rect x="-9.6" width="115.2" fill="#ffffff" y="-9.6" height="115.199999" fill-opacity="1"/><rect x="-9.6" width="115.2" fill="#ffffff" y="-9.6" height="115.199999" fill-opacity="1"/><g transform="matrix(1, 0, 0, 1, 1, -0.000000000000008101)"><g clip-path="url(#444be98a36)"><g fill="#13d0f5" fill-opacity="1"><g transform="translate(0.943005, 75.231649)"><g><path d="M 7.234375 0 L 7.234375 -52.953125 L 15.4375 -52.953125 L 15.4375 -44.796875 L 15.921875 -44.796875 C 16.910156 -47.484375 18.617188 -49.640625 21.046875 -51.265625 C 23.484375 -52.898438 26.285156 -53.71875 29.453125 -53.71875 C 30.117188 -53.71875 30.867188 -53.703125 31.703125 -53.671875 C 32.535156 -53.640625 33.175781 -53.601562 33.625 -53.5625 L 33.625 -44.984375 C 33.363281 -45.046875 32.726562 -45.140625 31.71875 -45.265625 C 30.71875 -45.398438 29.640625 -45.46875 28.484375 -45.46875 C 26.085938 -45.46875 23.921875 -44.953125 21.984375 -43.921875 C 20.054688 -42.898438 18.539062 -41.460938 17.4375 -39.609375 C 16.332031 -37.753906 15.78125 -35.566406 15.78125 -33.046875 L 15.78125 0 Z M 7.234375 0 "/></g></g></g><g fill="#13d0f5" fill-opacity="1"><g transform="translate(37.919896, 75.231649)"><g><path d="M 15.78125 -31.5625 L 15.78125 0 L 7.234375 0 L 7.234375 -52.953125 L 15.4375 -52.953125 L 15.484375 -40.140625 L 14.046875 -40.140625 C 15.679688 -45.003906 18 -48.484375 21 -50.578125 C 24.007812 -52.671875 27.546875 -53.71875 31.609375 -53.71875 C 35.179688 -53.71875 38.332031 -52.972656 41.0625 -51.484375 C 43.800781 -49.992188 45.945312 -47.753906 47.5 -44.765625 C 49.050781 -41.773438 49.828125 -38.007812 49.828125 -33.46875 L 49.828125 0 L 41.296875 0 L 41.296875 -32.796875 C 41.296875 -36.953125 40.222656 -40.1875 38.078125 -42.5 C 35.929688 -44.820312 32.988281 -45.984375 29.25 -45.984375 C 26.695312 -45.984375 24.40625 -45.441406 22.375 -44.359375 C 20.34375 -43.273438 18.734375 -41.660156 17.546875 -39.515625 C 16.367188 -37.367188 15.78125 -34.71875 15.78125 -31.5625 Z M 15.78125 -31.5625 "/></g></g></g></g></g></svg>