<svg xmlns="http://www.w3.org/2000/svg" xmlns:xlink="http://www.w3.org/1999/xlink" width="128" zoomAndPan="magnify" viewBox="0 0 96 95.999999" height="128" preserveAspectRatio="xMidYMid meet" version="1.0"><defs><g/><clipPath id="181a151903"><rect x="0" width="96" y="0" height="72"/></clipPath></defs><g transform="matrix(1, 0, 0, 1, 0, 9)"><g clip-path="url(#181a151903)"><g fill="#073d5e" fill-opacity="1"><g transform="translate(0.0000005, 56.452096)"><g><path d="M 17.84375 -20.6875 C 16.894531 -21.5625 15.867188 -22 14.765625 -22 C 13.691406 -22 12.78125 -21.703125 12.03125 -21.109375 C 11.238281 -20.472656 10.585938 -19.722656 10.078125 -18.859375 C 9.085938 -17.117188 8.59375 -15.179688 8.59375 -13.046875 L 8.59375 0 L 4.453125 0 L 4.453125 -26.09375 L 8.59375 -26.09375 L 8.59375 -20.6875 L 8.78125 -21.765625 C 10.15625 -25.003906 12.304688 -26.625 15.234375 -26.625 C 16.148438 -26.625 17.019531 -26.445312 17.84375 -26.09375 Z M 17.84375 -20.6875 "/></g></g></g><g fill="#073d5e" fill-opacity="1"><g transform="translate(18.438322, 56.452096)"><g><path d="M 25.203125 -13.046875 C 25.203125 -15.578125 24.332031 -17.789062 22.59375 -19.6875 C 20.8125 -21.582031 18.617188 -22.53125 16.015625 -22.53125 C 13.398438 -22.53125 11.222656 -21.582031 9.484375 -19.6875 C 7.703125 -17.789062 6.8125 -15.578125 6.8125 -13.046875 C 6.8125 -10.515625 7.703125 -8.300781 9.484375 -6.40625 C 11.222656 -4.507812 13.398438 -3.5625 16.015625 -3.5625 C 18.617188 -3.5625 20.8125 -4.507812 22.59375 -6.40625 C 24.332031 -8.300781 25.203125 -10.515625 25.203125 -13.046875 Z M 29.359375 0 L 25.203125 0 L 25.203125 -4.453125 C 24.960938 -4.128906 24.722656 -3.832031 24.484375 -3.5625 C 21.992188 -0.789062 18.953125 0.59375 15.359375 0.59375 C 11.765625 0.59375 8.738281 -0.789062 6.28125 -3.5625 C 3.875 -6.25 2.671875 -9.410156 2.671875 -13.046875 C 2.671875 -16.679688 3.875 -19.84375 6.28125 -22.53125 C 8.738281 -25.300781 11.765625 -26.6875 15.359375 -26.6875 C 18.953125 -26.6875 21.992188 -25.300781 24.484375 -22.53125 C 24.722656 -22.257812 24.960938 -21.960938 25.203125 -21.640625 L 25.203125 -26.09375 L 29.359375 -26.09375 Z M 29.359375 0 "/></g></g></g><g fill="#073d5e" fill-opacity="1"><g transform="translate(52.232019, 56.452096)"><g><path d="M 8.65625 -35.109375 C 9.164062 -34.585938 9.421875 -33.972656 9.421875 -33.265625 C 9.421875 -32.515625 9.164062 -31.882812 8.65625 -31.375 C 8.144531 -30.851562 7.53125 -30.59375 6.8125 -30.59375 C 6.0625 -30.59375 5.429688 -30.851562 4.921875 -31.375 C 4.410156 -31.882812 4.15625 -32.515625 4.15625 -33.265625 C 4.15625 -33.972656 4.410156 -34.585938 4.921875 -35.109375 C 5.429688 -35.617188 6.0625 -35.875 6.8125 -35.875 C 7.53125 -35.875 8.144531 -35.617188 8.65625 -35.109375 Z M 8.890625 0 L 4.75 0 L 4.75 -26.09375 L 8.890625 -26.09375 Z M 8.890625 0 "/></g></g></g><g fill="#073d5e" fill-opacity="1"><g transform="translate(65.808785, 56.452096)"><g><path d="M 22.46875 0 L 22.46875 -16.3125 C 22.46875 -18.007812 22.09375 -19.46875 21.34375 -20.6875 C 20.550781 -21.875 19.269531 -22.46875 17.5 -22.46875 C 15.71875 -22.46875 14.269531 -22.132812 13.15625 -21.46875 C 12.050781 -20.789062 11.164062 -19.921875 10.5 -18.859375 C 9.226562 -16.878906 8.59375 -14.226562 8.59375 -10.90625 L 8.59375 0 L 4.453125 0 L 4.453125 -26.09375 L 8.59375 -26.09375 L 8.59375 -21.578125 C 9.46875 -23.046875 10.578125 -24.253906 11.921875 -25.203125 C 13.335938 -26.148438 14.976562 -26.625 16.84375 -26.625 C 18.695312 -26.625 20.195312 -26.367188 21.34375 -25.859375 C 22.488281 -25.296875 23.457031 -24.5625 24.25 -23.65625 C 25.832031 -21.800781 26.625 -19.351562 26.625 -16.3125 L 26.625 0 Z M 22.46875 0 "/></g></g></g></g></g></svg>